# xmcd CD database file
#
# Track frame offsets:
#	150
#	19555
#	35582
#	56357
#	79997
#	100711
#	124708
#	147397
#	157677
#	179262
#	190854
#	211334
#	229847
#	251110
#	275138
#	290315
#	309908
#	330176
#	341823
#
# Disc length: 4714 seconds
#
# Revision: 1
# Processed by: cddbd v1.4PL0 Copyright (c) Steve Scherf et al.
# Submitted via: CDex 1.50beta9
#
DISCID=07126813
DTITLE=Diana Krall - The Best Of
DYEAR=1900
DGENRE=Jazz
TTITLE0=Diana Krall - Hit That Jive Jack
TTITLE1=Diana Krall - Deed I Do
TTITLE2=Diana Krall - When I Grow Too Old To Dream
TTITLE3=Diana Krall - I Love Being Here With You
TTITLE4=Diana Krall - Let's Fall In Love
TTITLE5=Diana Krall - 'Deed I Do
TTITLE6=Diana Krall - Just The Way You Are
TTITLE7=Diana Krall - You're Getting To Be A Habit With Me
TTITLE8=Diana Krall - How Deep Is The Ocean (How High Is The Sky)
TTITLE9=Diana Krall - That Old Feeling
TTITLE10=Diana Krall - This Can't Be Love
TTITLE11=Diana Krall - Between The Devil And The Deep Blue Sea
TTITLE12=Diana Krall - As Long As I Live
TTITLE13=Diana Krall - Let's Face the Music and Dance
TTITLE14=Diana Krall - Devil May Care
TTITLE15=Diana Krall - Let's Fall in Love
TTITLE16=Diana Krall - Popsicle Toes
TTITLE17=Diana Krall - I Can't Give You Anything But Love
TTITLE18=Diana Krall - The Best Thing for You
EXTD=
EXTT0=
EXTT1=
EXTT2=
EXTT3=
EXTT4=
EXTT5=
EXTT6=
EXTT7=
EXTT8=
EXTT9=
EXTT10=
EXTT11=
EXTT12=
EXTT13=
EXTT14=
EXTT15=
EXTT16=
EXTT17=
EXTT18=
PLAYORDER=
